PathFileType	4	(X/Y/Z)	C:\Users\chris\Documents\GitHub\baseballds\vids\pitch4_Sports2D\pitch4_Sports2D_px_person00.trc
DataRate	CameraRate	NumFrames	NumMarkers	Units	OrigDataRate	OrigDataStartFrame	OrigNumFrames
30	30	6	22	m	30	89	238
Frame#	Time	Hip			RHip			RKnee			RAnkle			RBigToe			RSmallToe			RHeel			LHip			LKnee			LAnkle			LBigToe			LSmallToe			LHeel			Neck			Head			Nose			RShoulder			RElbow			RWrist			LShoulder			LElbow			LWrist		
		X1	Y1	Z1	X2	Y2	Z2	X3	Y3	Z3	X4	Y4	Z4	X5	Y5	Z5	X6	Y6	Z6	X7	Y7	Z7	X8	Y8	Z8	X9	Y9	Z9	X10	Y10	Z10	X11	Y11	Z11	X12	Y12	Z12	X13	Y13	Z13	X14	Y14	Z14	X15	Y15	Z15	X16	Y16	Z16	X17	Y17	Z17	X18	Y18	Z18	X19	Y19	Z19	X20	Y20	Z20	X21	Y21	Z21	X22	Y22	Z22
89	2.966666666666667	221.64272869260492	1048.7214187064246	0.0	195.03446511987912	1072.9784970264864	0.0	306.8212492720021	1379.7205271764617	0.0	238.05809205658414	1685.8116660925652	0.0	391.5920023187134	1740.4460141930074	0.0	362.2527488893037	1755.6230585999879	0.0	209.544676857819	1726.2005942701726	0.0	262.91186118727467	1064.8058232917888	0.0	311.91014861378653	1357.9332106438574	0.0	276.0881451927823	1593.2322463120393	0.0	405.7459582850122	1652.7734810031432	0.0	389.1567921997466	1624.5265959547228	0.0	243.48045267357355	1626.1286693492186	0.0	299.8307992663882	617.6751430207476	0.0	316.1254009302782	430.42529667846725	0.0	406.33034205987826	521.6020961927475	0.0	244.8711501676494	696.9854816479378	0.0	293.00483766055555	939.375323000859	0.0	488.7817977247843	913.7630421779235	0.0	346.3088362084617	694.3677318926616	0.0	361.2464533910741	894.5680642934134	0.0	493.37719157574315	909.2207658815181	0.0
90	3.0	222.22236784984756	1048.9996961004333	0.0	196.4210774321296	1072.273222123026	0.0	307.7639701475174	1378.7756619940214	0.0	240.18950577128132	1684.4875407242691	0.0	393.7147971606831	1743.1723307569068	0.0	363.3660352572348	1756.6145483884225	0.0	210.7454600806326	1724.8666219675622	0.0	263.71902366088625	1064.0772934197605	0.0	313.0784020902694	1357.3414969076744	0.0	276.5820768460842	1598.1624304161492	0.0	409.7112315667372	1655.9612949596665	0.0	391.3109959182271	1626.4428075718565	0.0	243.6166955928232	1630.18688846555	0.0	299.9044401925059	617.5862749659373	0.0	314.8619390274375	432.2460660857174	0.0	405.6583354252981	521.3591744671054	0.0	245.6389581502611	695.9573503328918	0.0	292.515252971933	937.0270166495077	0.0	488.42714450589915	913.5838020103295	0.0	344.5254938110469	694.3864648116074	0.0	360.78346808109626	894.4684190188633	0.0	491.7345204876924	909.2895878316419	0.0
91	3.033333333333333	222.83586907428298	1049.7084158780794	0.0	197.73931246207303	1072.625328565442	0.0	307.865563059956	1377.9538294356707	0.0	242.06401244218043	1684.3807206792596	0.0	394.27783686720613	1745.2880132684718	0.0	362.17610844591377	1757.4551089730326	0.0	212.12979987396324	1724.6736857041942	0.0	264.33330437676466	1064.8390120659205	0.0	314.08623926334946	1356.4516775194143	0.0	278.5090104271952	1598.196372972578	0.0	410.77605461246964	1655.09124955474	0.0	392.93862433566994	1625.067993395897	0.0	247.77274177902694	1630.917873142739	0.0	299.5394737149165	616.8396772862228	0.0	316.6032251353622	432.77197194624534	0.0	405.830500069774	523.5474983293078	0.0	247.12347689914645	694.7855399121263	0.0	290.9802891383872	936.2243249344945	0.0	486.95765207369095	912.730098410545	0.0	341.2138942836659	693.5861079986755	0.0	356.21554246841	893.4702827566447	0.0	488.3410796316199	907.7829008037274	0.0
92	3.0666666666666664	224.35711353865503	1051.4266579370326	0.0	199.9543853742228	1074.1029618184718	0.0	307.82801649024964	1377.5570224940857	0.0	243.2254898708435	1684.2092982928389	0.0	393.910358208328	1746.634502174927	0.0	360.0847571454003	1758.4494788972002	0.0	213.82291904194486	1724.4920603310009	0.0	266.3184949531157	1067.160825615887	0.0	315.08993490514933	1355.9095019017677	0.0	282.0212721527083	1594.2260186851543	0.0	411.2972784736284	1652.6045129767551	0.0	395.44629369466776	1623.1107433243794	0.0	253.4070459576701	1628.3652869965583	0.0	298.45968432412053	616.2859442465381	0.0	318.917325307232	431.8332132279199	0.0	406.24138848793183	526.2073800810506	0.0	247.39263046724224	694.1666139405177	0.0	286.94297993185864	936.6951921276786	0.0	483.7229777637536	912.5577014594973	0.0	338.6479623575593	692.991687271988	0.0	350.58686620156914	892.4396113016281	0.0	484.94484442324745	906.07820007053	0.0
93	3.1	227.58414375078024	1053.8894084112544	0.0	203.44913651777728	1075.926787330956	0.0	308.5244672700234	1377.0528105396218	0.0	244.05840193479406	1682.9564496560433	0.0	394.564419814063	1747.4492217848003	0.0	359.0196094021296	1759.405210056076	0.0	215.50047572285138	1723.681924026257	0.0	270.9173569648332	1069.3697258638342	0.0	316.48854495961007	1355.8172504652184	0.0	286.4451225608043	1591.1128044221462	0.0	414.87489621518307	1652.2102314279668	0.0	399.55470578201766	1623.5462437063584	0.0	257.06338244578416	1625.5997441396112	0.0	297.54186143067943	616.0743874475274	0.0	317.7181522103789	430.630420238071	0.0	405.7627594202245	525.7295428163908	0.0	246.18367798594556	694.5907442877402	0.0	279.61638609343424	937.2945275899693	0.0	478.11922978913196	913.7611204633504	0.0	338.55313485689487	692.9210003001772	0.0	347.4578716448068	892.1922117773671	0.0	481.6188549797521	906.0554148412742	0.0
94	3.1333333333333333	231.37377799563873	1056.1289465593159	0.0	207.1186076786642	1077.4413452086908	0.0	309.9721787622005	1376.6703807740932	0.0	244.9956489806737	1682.2339052348868	0.0	396.8296230853784	1747.6328381272724	0.0	360.40285982722673	1759.9851142362031	0.0	216.75734693424013	1723.81183234529	0.0	275.66157900186977	1070.2894880584104	0.0	317.7357600714147	1355.8731295328741	0.0	289.29679817479274	1590.7775823508423	0.0	419.47289682968386	1654.0756921369282	0.0	402.6797978562689	1626.0187402298398	0.0	257.88088035929786	1625.2385762969502	0.0	297.8881566242584	616.188007413464	0.0	314.57692530472195	430.12397703734143	0.0	404.4558632607515	523.3525921809803	0.0	245.68403719439735	695.5867260254907	0.0	269.70202895276	937.6776254438153	0.0	469.8230008510927	916.2107514621205	0.0	339.58550389876444	693.3234094310114	0.0	344.4146879945682	893.483434437522	0.0	476.3839817374463	909.6858197767544	0.0
